<?xml version="1.0" encoding="UTF-8"?>
<svg version="1.1" xmlns="http://www.w3.org/2000/svg" width="500" height="500">
<path d="M0 0 C0.99 0.66 1.98 1.32 3 2 C3 2.66 3 3.32 3 4 C3.66 4 4.32 4 5 4 C5 4.66 5 5.32 5 6 C5.66 6 6.32 6 7 6 C16.90705962 18.83525459 21.51165949 33.82027579 19.5 49.9375 C17.83133082 58.70714825 13.02025126 69.29368022 7 76 C6.34 76 5.68 76 5 76 C4.505 77.485 4.505 77.485 4 79 C-2.91304881 85.11594675 -12.60667886 91 -22 91 C-23.34750449 80.55684023 -23.58578691 72.03166577 -20 62 C-19.34 62 -18.68 62 -18 62 C-17.76539063 61.236875 -17.53078125 60.47375 -17.2890625 59.6875 C-15.41559317 55.78160031 -12.58316803 54.67078099 -8.8984375 52.625 C-6.70011971 51.12157719 -6.70011971 51.12157719 -6.7265625 48.3125 C-6.81679687 47.549375 -6.90703125 46.78625 -7 46 C-6.34 46 -5.68 46 -5 46 C-4.67 44.68 -4.34 43.36 -4 42 C-4.66 42 -5.32 42 -6 42 C-6.33 41.01 -6.66 40.02 -7 39 C-7.185625 39.85271484 -7.185625 39.85271484 -7.375 40.72265625 C-9.14721817 47.35739803 -12.21321775 51.26802527 -18 55 C-20.25390625 55.6875 -20.25390625 55.6875 -22 56 C-21.41070989 52.96936513 -20.74955438 49.9982175 -20 47 C-21.65 50.96 -23.3 54.92 -25 59 C-25.66 59 -26.32 59 -27 59 C-27.38922918 57.71254964 -27.76098036 56.41980403 -28.125 55.125 C-28.33382812 54.40570313 -28.54265625 53.68640625 -28.7578125 52.9453125 C-28.83773437 52.30335938 -28.91765625 51.66140625 -29 51 C-28.34 50.34 -27.68 49.68 -27 49 C-26.66666667 46 -26.66666667 46 -27 43 C-27.66 42.34 -28.32 41.68 -29 41 C-32.30683466 41.28983269 -32.30683466 41.28983269 -35 43 C-35.30988753 47.17419294 -35.30988753 47.17419294 -33.875 51 C-33 53 -33 53 -33.875 56.25 C-34.24625 57.1575 -34.6175 58.065 -35 59 C-35.66 59 -36.32 59 -37 59 C-37.99 57.02 -38.98 55.04 -40 53 C-40 53.99 -40 54.98 -40 56 C-45.99436194 54.18352668 -50.57187425 50.14218863 -54 45 C-54.38499891 43.34450469 -54.72793135 41.6777567 -55 40 C-55.99 40.99 -56.98 41.98 -58 43 C-57.505 43.5775 -57.01 44.155 -56.5 44.75 C-55 47 -55 47 -55 51 C-53.42279874 52.58381341 -53.42279874 52.58381341 -51.3125 53.875 C-45.86985309 57.69930234 -42.19054199 61.57879752 -40 68 C-38.72607816 75.73215172 -39.00937429 83.25787906 -40 91 C-49.52088617 90.00824102 -56.23310487 86.4996358 -64 81 C-65.485 80.01 -65.485 80.01 -67 79 C-67 78.34 -67 77.68 -67 77 C-67.66 77 -68.32 77 -69 77 C-80.32924673 64.10121027 -82.78935095 49.88177052 -82.17919922 33.42285156 C-81.37460903 22.54444146 -74.92652566 10.46025944 -67 3 C-46.64264753 -13.92039685 -21.74301686 -15.24214864 0 0 Z M-43 7 C-43.33 7.66 -43.66 8.32 -44 9 C-43.01 8.67 -42.02 8.34 -41 8 C-41.66 7.67 -42.32 7.34 -43 7 Z M-19 7 C-19.66 7.66 -20.32 8.32 -21 9 C-20.01 9 -19.02 9 -18 9 C-18.33 8.34 -18.66 7.68 -19 7 Z M-17 10 C-16 13 -16 13 -16 13 Z M-64 32 C-63 34 -63 34 -63 34 Z M-62 37 C-61 39 -61 39 -61 39 Z M-2 38 C-2 41 -2 41 -2 41 Z M-60 40 C-59 42 -59 42 -59 42 Z M-46 40 C-45 42 -45 42 -45 42 Z M-18 41 C-17 43 -17 43 -17 43 Z M-45 42 C-44 44 -44 44 -44 44 Z " fill="#33AFD3" transform="translate(212,210)"/>
<path d="M0 0 C4.62649434 0.10186777 8.97330198 1.09261533 13.4375 2.25 C13.4375 2.91 13.4375 3.57 13.4375 4.25 C15.4175 4.25 17.3975 4.25 19.4375 4.25 C19.4375 4.91 19.4375 5.57 19.4375 6.25 C20.448125 6.146875 21.45875 6.04375 22.5 5.9375 C27.25727523 6.31506153 30.08186986 7.88417038 33.4375 11.25 C33.4375 11.91 33.4375 12.57 33.4375 13.25 C34.0975 13.25 34.7575 13.25 35.4375 13.25 C35.4375 13.91 35.4375 14.57 35.4375 15.25 C36.0975 15.25 36.7575 15.25 37.4375 15.25 C47.34455962 28.08525459 51.94915949 43.07027579 49.9375 59.1875 C48.26883082 67.95714825 43.45775126 78.54368022 37.4375 85.25 C36.7775 85.25 36.1175 85.25 35.4375 85.25 C34.9425 86.735 34.9425 86.735 34.4375 88.25 C27.52445119 94.36594675 17.83082114 100.25 8.4375 100.25 C7.08999551 89.80684023 6.85171309 81.28166577 10.4375 71.25 C11.0975 71.25 11.7575 71.25 12.4375 71.25 C12.67210937 70.486875 12.90671875 69.72375 13.1484375 68.9375 C15.02190683 65.03160031 17.85433197 63.92078099 21.5390625 61.875 C23.73738029 60.37157719 23.73738029 60.37157719 23.7109375 57.5625 C23.57558594 56.4178125 23.57558594 56.4178125 23.4375 55.25 C24.0975 55.25 24.7575 55.25 25.4375 55.25 C25.7675 53.93 26.0975 52.61 26.4375 51.25 C25.7775 51.25 25.1175 51.25 24.4375 51.25 C24.1075 50.26 23.7775 49.27 23.4375 48.25 C23.251875 49.10271484 23.251875 49.10271484 23.0625 49.97265625 C21.29028183 56.60739803 18.22428225 60.51802527 12.4375 64.25 C10.18359375 64.9375 10.18359375 64.9375 8.4375 65.25 C8.93146767 61.17476675 10.40131295 58.390451 12.453125 54.93359375 C15.54290827 49.64908348 17.18432426 43.87412394 15.93359375 37.8046875 C14.42544498 32.68712991 14.42544498 32.68712991 10.4375 29.25 C10.4375 28.59 10.4375 27.93 10.4375 27.25 C9.4475 27.25 8.4575 27.25 7.4375 27.25 C7.4375 26.26 7.4375 25.27 7.4375 24.25 C9.7475 24.25 12.0575 24.25 14.4375 24.25 C15.36319192 20.63138615 15.79874716 18.92537512 14 15.5625 C13.484375 14.799375 12.96875 14.03625 12.4375 13.25 C12.4375 12.26 12.4375 11.27 12.4375 10.25 C11.7775 10.25 11.1175 10.25 10.4375 10.25 C10.19 11.03375 9.9425 11.8175 9.6875 12.625 C8.28360901 15.57317108 7.43074263 16.1524777 4.4375 17.25 C4.623125 17.806875 4.80875 18.36375 5 18.9375 C5.51301165 21.649133 5.1015724 23.59371039 4.4375 26.25 C3.1175 26.58 1.7975 26.91 0.4375 27.25 C0.4375 26.59 0.4375 25.93 0.4375 25.25 C-0.8825 25.25 -2.2025 25.25 -3.5625 25.25 C-3.5625 25.91 -3.5625 26.57 -3.5625 27.25 C-4.5525 26.92 -5.5425 26.59 -6.5625 26.25 C-5.9025 26.25 -5.2425 26.25 -4.5625 26.25 C-4.5625 25.26 -4.5625 24.27 -4.5625 23.25 C-5.5525 22.92 -6.5425 22.59 -7.5625 22.25 C-7.2325 21.26 -6.9025 20.27 -6.5625 19.25 C-6.95647335 16.61195411 -6.95647335 16.61195411 -7.5625 14.25 C-8.2225 14.25 -8.8825 14.25 -9.5625 14.25 C-8.90784272 11.46926527 -8.10901732 8.80682958 -7.125 6.125 C-6.87878906 5.44179687 -6.63257813 4.75859375 -6.37890625 4.0546875 C-4.80066054 0.56593382 -3.85049302 0.27021004 0 0 Z M28.4375 47.25 C28.4375 50.25 28.4375 50.25 28.4375 50.25 Z " fill="#308FC5" transform="translate(181.5625,200.75)"/>
<path d="M0 0 C0.66 0.66 1.32 1.32 2 2 C2.33 1.34 2.66 0.68 3 0 C14.46387153 2.82846924 24.98740628 5.95424597 32.3515625 15.80859375 C37.41019776 24.56112455 36.23330064 35.36128119 35 45 C25.47911383 44.00824102 18.76689513 40.4996358 11 35 C10.01 34.34 9.02 33.68 8 33 C8 32.34 8 31.68 8 31 C7.34 31 6.68 31 6 31 C0.06684903 23.76584484 -4.61602333 16.89990991 -4.37109375 7.34765625 C-3.85085666 4.05647213 -2.39575431 2.24601966 0 0 Z " fill="#3091C7" transform="translate(137,256)"/>
<path d="M0 0 C1.2065625 0.0309375 1.2065625 0.0309375 2.4375 0.0625 C4.40083046 10.22195605 3.78387072 20.84450789 2.4375 31.0625 C-9.08414009 32.39507403 -9.08414009 32.39507403 -14.5625 31.0625 C-14.5625 30.4025 -14.5625 29.7425 -14.5625 29.0625 C-15.2225 29.0625 -15.8825 29.0625 -16.5625 29.0625 C-17.5525 27.0825 -18.5425 25.1025 -19.5625 23.0625 C-23.8525 23.0625 -28.1425 23.0625 -32.5625 23.0625 C-32.2325 23.7225 -31.9025 24.3825 -31.5625 25.0625 C-30.655 25.0625 -29.7475 25.0625 -28.8125 25.0625 C-26.39583333 25.0625 -23.97916667 25.0625 -21.5625 25.0625 C-21.2325 26.3825 -20.9025 27.7025 -20.5625 29.0625 C-25.04112258 32.04824839 -29.3174453 31.7669453 -34.5625 31.0625 C-37.75 29.25 -37.75 29.25 -39.5625 26.0625 C-40.40385879 20.96080624 -40.29720678 16.65968865 -38.125 11.9375 C-34.44241235 9.24292367 -31.07859037 8.78024435 -26.5625 9.0625 C-23.33198618 10.36845239 -22.03351915 11.27746808 -20.25 14.25 C-20.023125 14.848125 -19.79625 15.44625 -19.5625 16.0625 C-18.923125 15.093125 -18.28375 14.12375 -17.625 13.125 C-15.26901448 10.2544889 -13.54791999 9.55153264 -9.875 9.125 C-7.23173121 8.95174373 -5.94599487 8.87075257 -3.5625 10.0625 C-3.57410156 9.42441406 -3.58570313 8.78632813 -3.59765625 8.12890625 C-3.60667969 7.30261719 -3.61570312 6.47632813 -3.625 5.625 C-3.63660156 4.80128906 -3.64820313 3.97757813 -3.66015625 3.12890625 C-3.51340586 0.02366796 -3.12550237 0.07623177 0 0 Z M-31.5625 14.0625 C-31.5625 15.0525 -31.5625 16.0425 -31.5625 17.0625 C-29.9125 16.7325 -28.2625 16.4025 -26.5625 16.0625 C-26.8925 15.4025 -27.2225 14.7425 -27.5625 14.0625 C-28.8825 14.0625 -30.2025 14.0625 -31.5625 14.0625 Z M-11.3125 15.0625 C-13.39875095 18.40050152 -12.29381915 21.2840177 -11.5625 25.0625 C-10.51546435 26.31926839 -10.51546435 26.31926839 -8.1875 26.3125 C-5.5765578 26.25405871 -5.5765578 26.25405871 -3.6875 24.9375 C-2.28985731 22.99750008 -2.28985731 22.99750008 -2.6875 20.0625 C-3.56017847 17.07045952 -4.03043685 15.8154668 -6.5625 14.0625 C-9.46430584 13.81443053 -9.46430584 13.81443053 -11.3125 15.0625 Z " fill="#313A53" transform="translate(315.5625,237.9375)"/>
<path d="M0 0 C0 1.65 0 3.3 0 5 C-1.65 5.33 -3.3 5.66 -5 6 C-5.33 7.32 -5.66 8.64 -6 10 C-4.68 10 -3.36 10 -2 10 C-1.67 10.66 -1.34 11.32 -1 12 C-0.195625 11.484375 0.60875 10.96875 1.4375 10.4375 C5.93911423 8.62105917 9.38349056 8.42320361 14 10 C16.99337625 13.1393946 17.90595321 15.00310407 18.3125 19.3125 C18 22 18 22 17 23 C14.81360547 23.07258946 12.62499611 23.08373783 10.4375 23.0625 C8.64119141 23.04896484 8.64119141 23.04896484 6.80859375 23.03515625 C5.88175781 23.02355469 4.95492188 23.01195312 4 23 C4.33 23.66 4.66 24.32 5 25 C7.32156597 25.40729228 9.6568787 25.74438677 12 26 C12 25.34 12 24.68 12 24 C13.32 24.33 14.64 24.66 16 25 C16.495 26.98 16.495 26.98 17 29 C12.63183055 31.91211297 9.53882968 32.26531546 4.375 31.375 C0.4131624 29.76091802 -0.99131038 28.77633649 -3 25 C-3.31037485 21.96748503 -3.23808285 19.03555636 -3 16 C-3.99 15.67 -4.98 15.34 -6 15 C-6 20.28 -6 25.56 -6 31 C-7.98 31 -9.96 31 -12 31 C-12 25.72 -12 20.44 -12 15 C-13.32 14.67 -14.64 14.34 -16 14 C-16 12.68 -16 11.36 -16 10 C-14.68 10 -13.36 10 -12 10 C-12.061875 9.0925 -12.12375 8.185 -12.1875 7.25 C-11.98118639 3.67389735 -11.49451413 2.49451413 -9 0 C-5.52176885 -1.15941038 -3.54104422 -0.70820884 0 0 Z M6 14 C5.01 15.485 5.01 15.485 4 17 C6.90073181 17.67801034 6.90073181 17.67801034 10 18 C10.66 17.34 11.32 16.68 12 16 C11.34 15.34 10.68 14.68 10 14 C8.68 14 7.36 14 6 14 Z " fill="#558DBA" transform="translate(351,238)"/>
<path d="M0 0 C0.74121094 -0.02900391 1.48242188 -0.05800781 2.24609375 -0.08789062 C5.56658963 -0.12663968 7.8420004 0.0680882 10.71484375 1.7890625 C12.94536762 5.45552158 12.96037 8.77745284 13.0625 13 C13.10052734 13.78439453 13.13855469 14.56878906 13.17773438 15.37695312 C13.25804595 17.35398484 13.26051347 19.33386567 13.25 21.3125 C12.92 21.6425 12.59 21.9725 12.25 22.3125 C10.27 22.3125 8.29 22.3125 6.25 22.3125 C5.92 17.0325 5.59 11.7525 5.25 6.3125 C3.93 6.3125 2.61 6.3125 1.25 6.3125 C1.26160156 7.04855469 1.27320313 7.78460938 1.28515625 8.54296875 C1.29417969 9.51878906 1.30320312 10.49460937 1.3125 11.5 C1.32410156 12.46292969 1.33570313 13.42585938 1.34765625 14.41796875 C1.25486622 17.16826513 0.87111685 19.63729591 0.25 22.3125 C-1.73 22.3125 -3.71 22.3125 -5.75 22.3125 C-5.73839844 21.40886719 -5.72679687 20.50523437 -5.71484375 19.57421875 C-5.70582031 18.39472656 -5.69679688 17.21523438 -5.6875 16 C-5.67589844 14.82824219 -5.66429687 13.65648437 -5.65234375 12.44921875 C-5.60100102 9.28190805 -5.60100102 9.28190805 -6.75 6.3125 C-9.86785113 6.95894661 -9.86785113 6.95894661 -10.75 9.3125 C-10.97950319 11.516864 -11.16075933 13.72642173 -11.3125 15.9375 C-11.39628906 17.12601562 -11.48007813 18.31453125 -11.56640625 19.5390625 C-11.62699219 20.45429688 -11.68757812 21.36953125 -11.75 22.3125 C-13.4 22.3125 -15.05 22.3125 -16.75 22.3125 C-16.75 15.3825 -16.75 8.4525 -16.75 1.3125 C-11.02925222 0.59740653 -5.71084631 0.07607699 0 0 Z " fill="#212434" transform="translate(261.75,246.6875)"/>
<path d="M0 0 C1.65 0.33 3.3 0.66 5 1 C4.979375 1.804375 4.95875 2.60875 4.9375 3.4375 C4.70366379 5.93354885 4.70366379 5.93354885 6 7 C6.04080783 8.99958364 6.04254356 11.00045254 6 13 C6.61875 12.814375 7.2375 12.62875 7.875 12.4375 C10 12 10 12 12 13 C12.6875 15.5 12.6875 15.5 13 18 C12.67 18.33 12.34 18.66 12 19 C11.79453916 22.83526909 11.65417345 26.66427275 11.5703125 30.50390625 C11.31400522 37.32808745 10.47609384 43.90869598 6.09765625 49.375 C5.42605469 49.91125 4.75445312 50.4475 4.0625 51 C3.39347656 51.556875 2.72445312 52.11375 2.03515625 52.6875 C-0.0099722 54.00643121 -1.62010137 54.57406736 -4 55 C-3.50603233 50.92476675 -2.03618705 48.140451 0.015625 44.68359375 C3.10540827 39.39908348 4.74682426 33.62412394 3.49609375 27.5546875 C1.98794498 22.43712991 1.98794498 22.43712991 -2 19 C-2 18.34 -2 17.68 -2 17 C-2.99 17 -3.98 17 -5 17 C-5 16.01 -5 15.02 -5 14 C-2.69 14 -0.38 14 2 14 C2.92569192 10.38138615 3.36124716 8.67537512 1.5625 5.3125 C0.7890625 4.1678125 0.7890625 4.1678125 0 3 C0 2.01 0 1.02 0 0 Z " fill="#309CCC" transform="translate(194,211)"/>
<path d="M0 0 C0.185625 0.639375 0.37125 1.27875 0.5625 1.9375 C1.94246056 4.42126213 1.94246056 4.42126213 5.625 4.75 C6.73875 4.8325 7.8525 4.915 9 5 C8.67 6.65 8.34 8.3 8 10 C8.66 10 9.32 10 10 10 C10.02578125 10.68964844 10.0515625 11.37929687 10.078125 12.08984375 C10.44136352 18.10804555 11.38685627 22.75604914 14.16015625 28.125 C15 30 15 30 15 33 C9.00563806 31.18352668 4.42812575 27.14218863 1 22 C0.61500109 20.34450469 0.27206865 18.6777567 0 17 C-0.33 17.66 -0.66 18.32 -1 19 C-2.64363134 19.72159424 -4.31050386 20.39351421 -6 21 C-6 20.34 -6 19.68 -6 19 C-7.32 18.67 -8.64 18.34 -10 18 C-9.835 16.9275 -9.67 15.855 -9.5 14.75 C-8.91189085 10.96971248 -8.91189085 10.96971248 -9 7 C-7 7 -7 7 -5.375 8.5 C-4.92125 8.995 -4.4675 9.49 -4 10 C-3.87882813 9.36191406 -3.75765625 8.72382813 -3.6328125 8.06640625 C-3.46523437 7.24011719 -3.29765625 6.41382813 -3.125 5.5625 C-2.96257812 4.73878906 -2.80015625 3.91507813 -2.6328125 3.06640625 C-2.42398438 2.38449219 -2.21515625 1.70257813 -2 1 C-1.34 0.67 -0.68 0.34 0 0 Z M-7 14 C-6 16 -6 16 -6 16 Z M-5 17 C-4 19 -4 19 -4 19 Z M9 17 C10 19 10 19 10 19 Z " fill="#50ABC9" transform="translate(157,233)"/>
<path d="M0 0 C0.66 0 1.32 0 2 0 C2.28875 1.134375 2.5775 2.26875 2.875 3.4375 C3.24625 4.613125 3.6175 5.78875 4 7 C4.66 7.33 5.32 7.66 6 8 C5.25 10.9375 5.25 10.9375 4 14 C1.09299153 15.406617 0.12277995 15.04092665 -3 14 C-3 14.99 -3 15.98 -3 17 C-2.01 17 -1.02 17 0 17 C4.59859179 21.37427024 6.58900831 25.63518278 7 32 C6.25 35.75 6.25 35.75 5 39 C4.690625 39.94875 4.38125 40.8975 4.0625 41.875 C3.711875 42.57625 3.36125 43.2775 3 44 C1.515 44.495 1.515 44.495 0 45 C-0.495 42.525 -0.495 42.525 -1 40 C-0.34 40 0.32 40 1 40 C0.67 37.69 0.34 35.38 0 33 C1.32 32.34 2.64 31.68 4 31 C3.690625 30.236875 3.38125 29.47375 3.0625 28.6875 C2.32106407 26.81210323 1.63771783 24.91315348 1 23 C0.34 23.33 -0.32 23.66 -1 24 C-1.66 22.68 -2.32 21.36 -3 20 C-3.99 20.66 -4.98 21.32 -6 22 C-6.33 21.67 -6.66 21.34 -7 21 C-7.67546875 21.20496094 -8.3509375 21.40992188 -9.046875 21.62109375 C-9.93890625 21.89050781 -10.8309375 22.15992188 -11.75 22.4375 C-12.63171875 22.70433594 -13.5134375 22.97117188 -14.421875 23.24609375 C-16.60565835 23.88468494 -18.78835498 24.46775833 -21 25 C-19.125 19.25 -19.125 19.25 -18 17 C-16.68 17 -15.36 17 -14 17 C-14 16.34 -14 15.68 -14 15 C-12.35 14.67 -10.7 14.34 -9 14 C-9 14.66 -9 15.32 -9 16 C-6.81956172 13.81956172 -6.43759775 12.97566473 -6 10 C-6.37907282 7.81296615 -6.37907282 7.81296615 -7 6 C-6.21625 5.7525 -5.4325 5.505 -4.625 5.25 C-1.67682892 3.84610901 -1.0975223 2.99324263 0 0 Z M1 6 C0.34 6.66 -0.32 7.32 -1 8 C-0.01 8 0.98 8 2 8 C1.67 7.34 1.34 6.68 1 6 Z M3 9 C4 12 4 12 4 12 Z M2 40 C3 42 3 42 3 42 Z " fill="#3AA7CF" transform="translate(192,211)"/>
<path d="M0 0 C0.66 1.32 1.32 2.64 2 4 C-0.31 4.66 -2.62 5.32 -5 6 C-4.34 7.32 -3.68 8.64 -3 10 C-0.03 9.34 2.94 8.68 6 8 C6.33 9.98 6.66 11.96 7 14 C2.71 14 -1.58 14 -6 14 C-5.67 14.66 -5.34 15.32 -5 16 C-4.0925 16 -3.185 16 -2.25 16 C0.16666667 16 2.58333333 16 5 16 C5.33 17.32 5.66 18.64 6 20 C1.52137742 22.98574839 -2.7549453 22.7044453 -8 22 C-11.1875 20.1875 -11.1875 20.1875 -13 17 C-13.86498764 11.75502949 -13.88339674 7.52309783 -11.1875 2.875 C-7.58228499 -0.21518429 -4.57753697 -0.10172304 0 0 Z " fill="#282B3B" transform="translate(289,247)"/>
<path d="M0 0 C0 1.65 0 3.3 0 5 C-1.65 5.33 -3.3 5.66 -5 6 C-5.33 7.32 -5.66 8.64 -6 10 C-4.68 10 -3.36 10 -2 10 C-2 11.32 -2 12.64 -2 14 C-3.65 14 -5.3 14 -7 14 C-7 19.61 -7 25.22 -7 31 C-8.65 31 -10.3 31 -12 31 C-12 25.72 -12 20.44 -12 15 C-13.32 14.67 -14.64 14.34 -16 14 C-16 12.68 -16 11.36 -16 10 C-14.68 10 -13.36 10 -12 10 C-12.061875 9.0925 -12.12375 8.185 -12.1875 7.25 C-11.98118639 3.67389735 -11.49451413 2.49451413 -9 0 C-5.52176885 -1.15941038 -3.54104422 -0.70820884 0 0 Z " fill="#2668AC" transform="translate(351,238)"/>
<path d="M0 0 C0.598125 0.45375 1.19625 0.9075 1.8125 1.375 C1.8125 1.705 1.8125 2.035 1.8125 2.375 C0.1625 2.375 -1.4875 2.375 -3.1875 2.375 C-3.1875 1.715 -3.1875 1.055 -3.1875 0.375 C-5.1675 0.375 -7.1475 0.375 -9.1875 0.375 C-9.1875 -0.285 -9.1875 -0.945 -9.1875 -1.625 C-10.30125 -1.604375 -11.415 -1.58375 -12.5625 -1.5625 C-16.1875 -1.625 -16.1875 -1.625 -18.1875 -2.625 C-19.56092831 -2.6939472 -20.93752102 -2.70967708 -22.3125 -2.6875 C-24.230625 -2.6565625 -24.230625 -2.6565625 -26.1875 -2.625 C-26.620625 -1.6659375 -26.620625 -1.6659375 -27.0625 -0.6875 C-28.1875 1.375 -28.1875 1.375 -30.1875 2.375 C-30.57921753 4.02891846 -30.90807545 5.69845271 -31.1875 7.375 C-31.5175 8.365 -31.8475 9.355 -32.1875 10.375 C-31.5275 10.375 -30.8675 10.375 -30.1875 10.375 C-29.5275 12.685 -28.8675 14.995 -28.1875 17.375 C-30.8275 16.715 -33.4675 16.055 -36.1875 15.375 C-36.1875 17.025 -36.1875 18.675 -36.1875 20.375 C-36.8475 20.045 -37.5075 19.715 -38.1875 19.375 C-38.39942221 14.18290596 -37.7787689 10.248261 -36.1875 5.375 C-35.5275 5.375 -34.8675 5.375 -34.1875 5.375 C-33.8575 3.395 -33.5275 1.415 -33.1875 -0.625 C-34.1775 -0.955 -35.1675 -1.285 -36.1875 -1.625 C-36.8475 -0.305 -37.5075 1.015 -38.1875 2.375 C-39.1775 2.045 -40.1675 1.715 -41.1875 1.375 C-43.18711564 1.33579185 -45.18799364 1.33056653 -47.1875 1.375 C-47.5175 2.365 -47.8475 3.355 -48.1875 4.375 C-49.5075 4.045 -50.8275 3.715 -52.1875 3.375 C-45.78320493 -1.18190226 -39.8510824 -3.06057215 -32.1875 -4.625 C-31.36894531 -4.8209375 -30.55039063 -5.016875 -29.70703125 -5.21875 C-20.00719421 -6.78275473 -8.69053014 -4.43046635 0 0 Z M-35.1875 12.375 C-35.5175 13.035 -35.8475 13.695 -36.1875 14.375 C-35.1975 14.045 -34.2075 13.715 -33.1875 13.375 C-33.8475 13.045 -34.5075 12.715 -35.1875 12.375 Z " fill="#37B8D5" transform="translate(204.1875,204.625)"/>
<path d="M0 0 C1.32 0 2.64 0 4 0 C4.33 2.31 4.66 4.62 5 7 C5.66 4.69 6.32 2.38 7 0 C7.33 0 7.66 0 8 0 C8.11689626 3.37470504 8.18747934 6.7488843 8.25 10.125 C8.30027344 11.55199219 8.30027344 11.55199219 8.3515625 13.0078125 C8.43315264 18.88230246 8.06109777 22.41534607 4 27 C1.9296875 28.8984375 1.9296875 28.8984375 -0.125 30.375 C-1.14980469 31.12910156 -1.14980469 31.12910156 -2.1953125 31.8984375 C-4 33 -4 33 -6 33 C-5.50603233 28.92476675 -4.03618705 26.140451 -1.984375 22.68359375 C1.55957964 16.62230625 2.76059229 10.30441238 1.0625 3.5 C0.711875 2.345 0.36125 1.19 0 0 Z " fill="#3193C0" transform="translate(196,233)"/>
<path d="M0 0 C1.65 0 3.3 0 5 0 C5 10.23 5 20.46 5 31 C3.35 31 1.7 31 0 31 C-1.85714057 29.14285943 -1.13048681 26.07492951 -1.1328125 23.59375 C-1.13410156 22.29308594 -1.13539063 20.99242187 -1.13671875 19.65234375 C-1.13462402 18.97155762 -1.1325293 18.29077148 -1.13037109 17.58935547 C-1.1250224 15.50871485 -1.1303168 13.42829011 -1.13671875 11.34765625 C-1.13542969 10.04699219 -1.13414062 8.74632812 -1.1328125 7.40625 C-1.13168457 6.20291016 -1.13055664 4.99957031 -1.12939453 3.75976562 C-1 1 -1 1 0 0 Z " fill="#8DAAC4" transform="translate(321,238)"/>
<path d="M0 0 C0 1.98 0 3.96 0 6 C-4.29 6 -8.58 6 -13 6 C-13 6.99 -13 7.98 -13 9 C-10.03 9.33 -7.06 9.66 -4 10 C-4 9.34 -4 8.68 -4 8 C-2.68 8.33 -1.36 8.66 0 9 C0.33 10.32 0.66 11.64 1 13 C-3.39329028 15.92886018 -6.49415024 16.25522877 -11.6875 15.375 C-15 14 -15 14 -17 11.6875 C-18.14308682 8.61545418 -17.97046104 7.0878306 -17 4 C-16.4225 3.87625 -15.845 3.7525 -15.25 3.625 C-12.97071952 3.08844891 -12.97071952 3.08844891 -11 1.875 C-8.50696061 0.78429527 -7.57095389 1.35726153 -5 2 C-0.33333333 0 -0.33333333 0 0 0 Z " fill="#2160A5" transform="translate(367,254)"/>
<path d="M0 0 C1.32 0 2.64 0 4 0 C3.7834375 0.8353125 3.7834375 0.8353125 3.5625 1.6875 C2.97230872 4.11384195 2.476571 6.54906345 2 9 C3.32 8.67 4.64 8.34 6 8 C4.35 12.29 2.7 16.58 1 21 C0.34 21 -0.32 21 -1 21 C-1.38922918 19.71254964 -1.76098036 18.41980403 -2.125 17.125 C-2.33382812 16.40570313 -2.54265625 15.68640625 -2.7578125 14.9453125 C-2.83773437 14.30335938 -2.91765625 13.66140625 -3 13 C-2.34 12.34 -1.68 11.68 -1 11 C-0.66666667 8 -0.66666667 8 -1 5 C-1.66 4.34 -2.32 3.68 -3 3 C-6.30683466 3.28983269 -6.30683466 3.28983269 -9 5 C-9.30988753 9.17419294 -9.30988753 9.17419294 -7.875 13 C-7 15 -7 15 -7.875 18.25 C-8.24625 19.1575 -8.6175 20.065 -9 21 C-9.66 21 -10.32 21 -11 21 C-12.32 17.7 -13.64 14.4 -15 11 C-13.68 11.33 -12.36 11.66 -11 12 C-11.01160156 11.37351562 -11.02320313 10.74703125 -11.03515625 10.1015625 C-11.04417969 9.28429687 -11.05320313 8.46703125 -11.0625 7.625 C-11.07410156 6.81289062 -11.08570313 6.00078125 -11.09765625 5.1640625 C-11 3 -11 3 -10 1 C-9.36191406 1.01160156 -8.72382813 1.02320313 -8.06640625 1.03515625 C-7.24011719 1.04417969 -6.41382813 1.05320313 -5.5625 1.0625 C-4.32693359 1.07990234 -4.32693359 1.07990234 -3.06640625 1.09765625 C-1.00836062 1.23267348 -1.00836062 1.23267348 0 0 Z " fill="#5C9CC0" transform="translate(186,248)"/>
<path d="M0 0 C0.66 0.33 1.32 0.66 2 1 C2.96088383 3.88265149 3.11670941 5.67662271 3.09765625 8.66796875 C3.09443359 9.56064453 3.09121094 10.45332031 3.08789062 11.37304688 C3.07951172 12.30181641 3.07113281 13.23058594 3.0625 14.1875 C3.05798828 15.12787109 3.05347656 16.06824219 3.04882812 17.03710938 C3.03704626 19.35813712 3.02059558 21.67903644 3 24 C2.01 24 1.02 24 0 24 C-1.44787411 20.9112019 -2.16283394 18.1780303 -2.5 14.8125 C-2.6081437 10.98575286 -2.6081437 10.98575286 -5 9 C-7.65537372 8.43479997 -10.29144713 8.26211802 -13 8 C-11.125 4.125 -11.125 4.125 -10 3 C-4.47058824 2.76470588 -4.47058824 2.76470588 -2 4 C-2 4.66 -2 5.32 -2 6 C-1.34 6 -0.68 6 0 6 C0 4.02 0 2.04 0 0 Z " fill="#101529" transform="translate(314,244)"/>
<path d="M0 0 C1.21236328 0.01353516 1.21236328 0.01353516 2.44921875 0.02734375 C3.37154297 0.04474609 3.37154297 0.04474609 4.3125 0.0625 C4.6425 1.0525 4.9725 2.0425 5.3125 3.0625 C4.3225 3.3925 3.3325 3.7225 2.3125 4.0625 C2.32410156 4.79855469 2.33570313 5.53460938 2.34765625 6.29296875 C2.35667969 7.26878906 2.36570312 8.24460937 2.375 9.25 C2.38660156 10.21292969 2.39820313 11.17585938 2.41015625 12.16796875 C2.31736622 14.91826513 1.93361685 17.38729591 1.3125 20.0625 C-0.6675 20.0625 -2.6475 20.0625 -4.6875 20.0625 C-4.65269531 18.85851562 -4.61789062 17.65453125 -4.58203125 16.4140625 C-4.5538972 14.83855558 -4.52659663 13.26303362 -4.5 11.6875 C-4.47486328 10.8934375 -4.44972656 10.099375 -4.42382812 9.28125 C-4.39745595 7.20663852 -4.53263538 5.13149135 -4.6875 3.0625 C-5.6775 2.4025 -6.6675 1.7425 -7.6875 1.0625 C-4.80538698 0.10179566 -2.98899956 -0.04331883 0 0 Z " fill="#1D2333" transform="translate(260.6875,248.9375)"/>
<path d="M0 0 C3 1 3 1 4.25854492 2.99365234 C4.66177979 3.84910645 5.06501465 4.70456055 5.48046875 5.5859375 C5.92197266 6.51664063 6.36347656 7.44734375 6.81835938 8.40625 C7.27017578 9.3859375 7.72199219 10.365625 8.1875 11.375 C8.65091797 12.34695312 9.11433594 13.31890625 9.59179688 14.3203125 C13 21.5884688 13 21.5884688 13 25 C7.64346486 23.16347367 4.14997157 20.90340122 1.1875 16 C-0.79605467 10.90739055 -0.23789936 5.36595231 0 0 Z " fill="#52A4C5" transform="translate(159,241)"/>
<path d="M0 0 C0.33 0 0.66 0 1 0 C1.33 1.98 1.66 3.96 2 6 C2 5.67 2 5.34 2 5 C2 4.01 2 3.02 2 2 C8.44807122 2.60830861 8.44807122 2.60830861 10.9375 4.375 C12 6 12 6 12 9 C11.02113469 10.02069716 10.01814427 11.01847963 9 12 C7.87448327 14.0010248 7.87448327 14.0010248 6.9375 16.125 C5.22064057 19.88967972 5.22064057 19.88967972 3 21 C2.27306096 22.97888961 1.60183749 24.97954558 1 27 C0.34 26.01 -0.32 25.02 -1 24 C-0.125 21.3125 -0.125 21.3125 1 19 C0.01 18.67 -0.98 18.34 -2 18 C-1.01 16.68 -0.02 15.36 1 14 C1.99 14.99 2.98 15.98 4 17 C4 16.34 4 15.68 4 15 C3.34 15 2.68 15 2 15 C2 14.34 2 13.68 2 13 C2.99 13 3.98 13 5 13 C4.38125 12.46375 3.7625 11.9275 3.125 11.375 C0.6836277 8.64640743 -0.16995818 6.54654234 -1 3 C-0.67 2.01 -0.34 1.02 0 0 Z " fill="#3CA8CB" transform="translate(165,218)"/>
<path d="M0 0 C0.66 0 1.32 0 2 0 C2.19658808 1.41543415 2.38187546 2.83244031 2.5625 4.25 C2.66691406 5.03890625 2.77132812 5.8278125 2.87890625 6.640625 C3.00033688 9.0065637 2.59738472 10.73094209 2 13 C3.16876308 14.28231267 3.16876308 14.28231267 5.9375 15.375 C9 17 9 17 11 20 C11 20.99 11 21.98 11 23 C9.68 23.33 8.36 23.66 7 24 C7 23.34 7 22.68 7 22 C5.453125 22.0928125 5.453125 22.0928125 3.875 22.1875 C-0.23468973 21.98864405 -2.48882496 21.05532197 -6 19 C-6.33 19.99 -6.66 20.98 -7 22 C-7.33 22 -7.66 22 -8 22 C-8 20.35 -8 18.7 -8 17 C-6.68 17 -5.36 17 -4 17 C-3.67 15.68 -3.34 14.36 -3 13 C-2.01 13 -1.02 13 0 13 C0 8.71 0 4.42 0 0 Z " fill="#4DB6D7" transform="translate(146,237)"/>
<path d="M0 0 C0.33 0 0.66 0 1 0 C1.66 3.96 2.32 7.92 3 12 C3.99 12 4.98 12 6 12 C8 15 8 15 8 18 C6.02 18.99 6.02 18.99 4 20 C5.32 20.99 6.64 21.98 8 23 C7.34 23.66 6.68 24.32 6 25 C3.5625 24.625 3.5625 24.625 1 24 C0.01 24 -0.98 24 -2 24 C-1.67 23.34 -1.34 22.68 -1 22 C-1.99 21.67 -2.98 21.34 -4 21 C-3.01 20.34 -2.02 19.68 -1 19 C-1.66 18.34 -2.32 17.68 -3 17 C-2.34 16.67 -1.68 16.34 -1 16 C-1.495 15.54625 -1.99 15.0925 -2.5 14.625 C-4 13 -4 13 -4 11 C-3.34 11 -2.68 11 -2 11 C-1.7834375 9.1128125 -1.7834375 9.1128125 -1.5625 7.1875 C-1.26251314 4.57332877 -0.84186703 2.52560108 0 0 Z " fill="#3081BA" transform="translate(215,239)"/>
<path d="M0 0 C0.66 0 1.32 0 2 0 C2.8895125 7.8413948 3.00220537 15.16737959 2 23 C-7.49982067 22.01043535 -14.26161774 18.53509286 -22 13 C-20 12 -20 12 -16.875 12.9375 C-15.451875 13.4634375 -15.451875 13.4634375 -14 14 C-14 14.66 -14 15.32 -14 16 C-12.783125 16.33 -11.56625 16.66 -10.3125 17 C-9.62800781 17.185625 -8.94351563 17.37125 -8.23828125 17.5625 C-5.77870197 18.04325546 -3.50006981 18.0700545 -1 18 C-1.01160156 17.3709375 -1.02320313 16.741875 -1.03515625 16.09375 C-1.09286873 10.61930912 -0.80228473 5.41542194 0 0 Z " fill="#5794BE" transform="translate(170,278)"/>
<path d="M0 0 C2.62187494 1.04874998 3.79371361 1.64931313 5.25 4.125 C5.4975 4.74375 5.745 5.3625 6 6 C7.65 4.02 9.3 2.04 11 0 C11.66 0.33 12.32 0.66 13 1 C12.01 2.485 12.01 2.485 11 4 C12.65 4 14.3 4 16 4 C15.01 5.485 15.01 5.485 14 7 C13.60986284 8.9896995 13.26797351 10.99019869 13 13 C12.67 13 12.34 13 12 13 C12 11.35 12 9.7 12 8 C11.01 8.33 10.02 8.66 9 9 C8.67 10.98 8.34 12.96 8 15 C6.0549 12.08235 5.54723683 10.37462715 5 7 C4.443125 7.33 3.88625 7.66 3.3125 8 C0.69715478 9.1309601 -1.1806646 9.15662974 -4 9 C-4 7 -4 7 -2 5 C-2.99 4.34 -3.98 3.68 -5 3 C-3.02 3 -1.04 3 1 3 C0.67 2.01 0.34 1.02 0 0 Z " fill="#4F5266" transform="translate(290,248)"/>
<path d="M0 0 C5 0 5 0 7 1 C6.67 2.32 6.34 3.64 6 5 C5.34 5 4.68 5 4 5 C4.16371094 5.53109375 4.32742187 6.0621875 4.49609375 6.609375 C5.11356377 9.53876764 5.09501925 12.25822936 5.0625 15.25 C5.05347656 16.32765625 5.04445312 17.4053125 5.03515625 18.515625 C5.02355469 19.33546875 5.01195312 20.1553125 5 21 C3.35 21 1.7 21 0 21 C0 14.07 0 7.14 0 0 Z " fill="#161829" transform="translate(245,248)"/>
<path d="M0 0 C1.65 0 3.3 0 5 0 C5 6.93 5 13.86 5 21 C3.35 21 1.7 21 0 21 C0 14.07 0 7.14 0 0 Z " fill="#3C73A8" transform="translate(329,248)"/>
<path d="M0 0 C0.33 0 0.66 0 1 0 C1 1.98 1 3.96 1 6 C1.99 6 2.98 6 4 6 C4.32210684 9.11369948 4.40279724 10.50334709 2.390625 12.984375 C1.68421875 13.56703125 0.9778125 14.1496875 0.25 14.75 C-0.44609375 15.34296875 -1.1421875 15.9359375 -1.859375 16.546875 C-3.9664413 17.97721928 -5.51166379 18.57406858 -8 19 C-7.52085917 15.04708811 -6.09689136 12.23890719 -4.0546875 8.84765625 C-2.43064761 6.00257895 -1.23707179 3.03082589 0 0 Z " fill="#3390BF" transform="translate(198,247)"/>
<path d="M0 0 C1.32 0 2.64 0 4 0 C4.556875 1.670625 4.556875 1.670625 5.125 3.375 C6.4794021 6.61378762 6.76212803 6.89272441 10.1875 8.4375 C11.5796875 8.7159375 11.5796875 8.7159375 13 9 C12.6875 10.9375 12.6875 10.9375 12 13 C8.52176885 14.15941038 6.54104422 13.70820884 3 13 C3 12.34 3 11.68 3 11 C2.34 11 1.68 11 1 11 C-0.20272819 8.59454362 -0.10071472 7.05003047 -0.0625 4.375 C-0.05347656 3.55773437 -0.04445313 2.74046875 -0.03515625 1.8984375 C-0.02355469 1.27195312 -0.01195312 0.64546875 0 0 Z " fill="#283140" transform="translate(298,256)"/>
<path d="M0 0 C0.66 0 1.32 0 2 0 C2.09945415 6.11090483 2.0712828 11.97403427 1 18 C-0.65 18.66 -2.3 19.32 -4 20 C-4 19.34 -4 18.68 -4 18 C-5.32 17.67 -6.64 17.34 -8 17 C-7.835 15.9275 -7.67 14.855 -7.5 13.75 C-6.91189085 9.96971248 -6.91189085 9.96971248 -7 6 C-6.34 6 -5.68 6 -5 6 C-4.01 6.99 -3.02 7.98 -2 9 C-1.34 6.03 -0.68 3.06 0 0 Z M-5 13 C-4 15 -4 15 -4 15 Z M-3 16 C-2 18 -2 18 -2 18 Z " fill="#62BAD4" transform="translate(155,234)"/>
<path d="M0 0 C0.77601563 -0.00773438 1.55203125 -0.01546875 2.3515625 -0.0234375 C8.12159734 -0.00340266 8.12159734 -0.00340266 10.375 2.25 C9.715 2.91 9.055 3.57 8.375 4.25 C8.00668919 6.18257855 8.00668919 6.18257855 7.9609375 8.3828125 C7.92226563 9.18847656 7.88359375 9.99414062 7.84375 10.82421875 C7.79734375 12.08685547 7.79734375 12.08685547 7.75 13.375 C7.71132813 14.22449219 7.67265625 15.07398438 7.6328125 15.94921875 C7.53843506 18.04911684 7.45562414 20.14952891 7.375 22.25 C7.045 22.25 6.715 22.25 6.375 22.25 C6.33761719 21.12980469 6.30023438 20.00960938 6.26171875 18.85546875 C6.19605743 17.3827791 6.12961014 15.91012434 6.0625 14.4375 C6.03994141 13.69951172 6.01738281 12.96152344 5.99414062 12.20117188 C5.79414757 8.00836116 5.79414757 8.00836116 4.09375 4.25 C1.96120816 3.00924839 0.63938469 2.94191551 -1.8125 3.0625 C-3.070625 3.124375 -4.32875 3.18625 -5.625 3.25 C-5.625 4.24 -5.625 5.23 -5.625 6.25 C-6.223125 6.353125 -6.82125 6.45625 -7.4375 6.5625 C-9.90743264 7.33876455 -10.94751235 8.32088921 -12.625 10.25 C-12.625 8.93 -12.625 7.61 -12.625 6.25 C-11.965 5.92 -11.305 5.59 -10.625 5.25 C-10.625 4.59 -10.625 3.93 -10.625 3.25 C-11.285 2.92 -11.945 2.59 -12.625 2.25 C-8.67060156 -0.41446098 -4.58179897 -0.04612549 0 0 Z " fill="#3A3D4A" transform="translate(261.625,246.75)"/>
<path d="M0 0 C0 1.65 0 3.3 0 5 C-1.175625 5.12375 -1.175625 5.12375 -2.375 5.25 C-5.14749104 5.72806339 -5.14749104 5.72806339 -6.3125 8.0625 C-6.6528125 9.0215625 -6.6528125 9.0215625 -7 10 C-7.99 10 -8.98 10 -10 10 C-10.66 10.66 -11.32 11.32 -12 12 C-12.99 11.67 -13.98 11.34 -15 11 C-15.33 11.99 -15.66 12.98 -16 14 C-16 12.68 -16 11.36 -16 10 C-14.68 10 -13.36 10 -12 10 C-12.061875 9.0925 -12.12375 8.185 -12.1875 7.25 C-11.98118639 3.67389735 -11.49451413 2.49451413 -9 0 C-5.52176885 -1.15941038 -3.54104422 -0.70820884 0 0 Z " fill="#6192BC" transform="translate(351,238)"/>
<path d="M0 0 C0.99 0 1.98 0 3 0 C3 9.57 3 19.14 3 29 C2.01 29 1.02 29 0 29 C0 19.43 0 9.86 0 0 Z " fill="#2865A2" transform="translate(322,239)"/>
<path d="M0 0 C0 0.33 0 0.66 0 1 C-1.65 1 -3.3 1 -5 1 C-5 0.34 -5 -0.32 -5 -1 C-6.98 -1 -8.96 -1 -11 -1 C-11 -1.66 -11 -2.32 -11 -3 C-12.11375 -2.979375 -13.2275 -2.95875 -14.375 -2.9375 C-18 -3 -18 -3 -20 -4 C-22.69013339 -4.18704404 -25.29686177 -4.08581391 -28 -4 C-28.33 -3.67 -28.66 -3.34 -29 -3 C-30.85772162 -3.08984301 -32.71247985 -3.24611861 -34.5625 -3.4375 C-36.08037109 -3.59025391 -36.08037109 -3.59025391 -37.62890625 -3.74609375 C-38.41136719 -3.82988281 -39.19382813 -3.91367188 -40 -4 C-40 -4.33 -40 -4.66 -40 -5 C-27.41729619 -8.05111656 -10.86223973 -8.2403198 0 0 Z " fill="#7AC6D7" transform="translate(206,206)"/>
<path d="M0 0 C0.99 0 1.98 0 3 0 C2.54177532 3.46941546 2.10868317 6.67395049 1 10 C0.65179959 11.66362417 0.31595508 13.32995171 0 15 C-0.99 14.67 -1.98 14.34 -3 14 C-3.99 15.485 -3.99 15.485 -5 17 C-5.66 17 -6.32 17 -7 17 C-7 12.38 -7 7.76 -7 3 C-6.34 3 -5.68 3 -5 3 C-4.34 5.31 -3.68 7.62 -3 10 C-2.01 6.7 -1.02 3.4 0 0 Z " fill="#60A6C6" transform="translate(213,235)"/>
<path d="M0 0 C3 1 3 1 4.125 3.1875 C6.00631231 9.23457528 6.09339289 12.94017847 4 19 C3.690625 19.94875 3.38125 20.8975 3.0625 21.875 C2.711875 22.57625 2.36125 23.2775 2 24 C1.01 24.33 0.02 24.66 -1 25 C-1.33 23.35 -1.66 21.7 -2 20 C-1.34 20 -0.68 20 0 20 C-0.33 17.69 -0.66 15.38 -1 13 C0.32 12.34 1.64 11.68 3 11 C2.7834375 10.28972656 2.566875 9.57945312 2.34375 8.84765625 C2.0653125 7.92855469 1.786875 7.00945312 1.5 6.0625 C1.2215625 5.14597656 0.943125 4.22945312 0.65625 3.28515625 C0 1 0 1 0 0 Z M1 20 C2 22 2 22 2 22 Z " fill="#57A6C9" transform="translate(193,231)"/>
<path d="M0 0 C-0.66 3.3 -1.32 6.6 -2 10 C-3.98 9.34 -5.96 8.68 -8 8 C-8 8.66 -8 9.32 -8 10 C-8.66 10 -9.32 10 -10 10 C-10.33 9.01 -10.66 8.02 -11 7 C-12.98 7.99 -12.98 7.99 -15 9 C-13.61932968 5.68639124 -12.2306258 4.13522516 -9.1875 2.25 C-8.52105469 1.82203125 -7.85460937 1.3940625 -7.16796875 0.953125 C-5 0 -5 0 0 0 Z M-9 5 C-8.67 5.66 -8.34 6.32 -8 7 C-7.67 6.34 -7.34 5.68 -7 5 C-7.66 5 -8.32 5 -9 5 Z " fill="#418DC3" transform="translate(210,261)"/>
<path d="M0 0 C1.32 0.33 2.64 0.66 4 1 C4.33 2.32 4.66 3.64 5 5 C1.68759039 7.20827308 -0.06349537 7.69719195 -4 8 C-7.8125 7.1875 -7.8125 7.1875 -11 6 C-11.33 5.34 -11.66 4.68 -12 4 C-10.35 4 -8.7 4 -7 4 C-7 3.34 -7 2.68 -7 2 C-4.69 2 -2.38 2 0 2 C0 1.34 0 0.68 0 0 Z " fill="#5B8DB5" transform="translate(363,262)"/>
<path d="M0 0 C3 1 3 1 4.1484375 2.703125 C5.15893578 5.42868917 5.41809312 7.85330369 5.625 10.75 C5.69976562 11.73484375 5.77453125 12.7196875 5.8515625 13.734375 C5.92503906 14.85585937 5.92503906 14.85585937 6 16 C4.68 16 3.36 16 2 16 C-0.14336161 12.5233662 -0.21277626 9.78770805 -0.125 5.75 C-0.10695312 4.67234375 -0.08890625 3.5946875 -0.0703125 2.484375 C-0.04710937 1.66453125 -0.02390625 0.8446875 0 0 Z " fill="#309CCA" transform="translate(159,241)"/>
<path d="M0 0 C7.11725049 6.10050042 9.37495349 15.07455515 11 24 C11.0454583 25.66604661 11.06089776 27.33444627 11 29 C10.34 29.33 9.68 29.66 9 30 C9 27.03 9 24.06 9 21 C8.34 20.67 7.68 20.34 7 20 C4.45814402 17.45814402 4.57195128 15.44550366 4.21875 11.9765625 C3.99118807 9.92037789 3.5791598 7.98569073 3 6 C2.34 6 1.68 6 1 6 C0.67 4.02 0.34 2.04 0 0 Z " fill="#5197BE" transform="translate(220,219)"/>
<path d="M0 0 C3.32943825 0.55490638 6.11610028 1.20999328 9 3 C11 6 11 6 11 9 C9.68 9.33 8.36 9.66 7 10 C7 9.34 7 8.68 7 8 C4.03 7.01 1.06 6.02 -2 5 C-2 4.34 -2 3.68 -2 3 C-1.34 3 -0.68 3 0 3 C0 2.01 0 1.02 0 0 Z " fill="#389CC3" transform="translate(146,251)"/>
<path d="M0 0 C0.99 0.33 1.98 0.66 3 1 C2.96519531 2.32064453 2.96519531 2.32064453 2.9296875 3.66796875 C2.91164062 4.82941406 2.89359375 5.99085938 2.875 7.1875 C2.84019531 8.91033203 2.84019531 8.91033203 2.8046875 10.66796875 C2.99515848 13.91740372 3.60639873 16.08660521 5 19 C4.67 19.33 4.34 19.66 4 20 C3.63239269 22.32817964 3.29758419 24.6618385 3 27 C0.30890208 22.96335313 -0.12835112 20.02277411 -0.09765625 15.234375 C-0.09443359 14.34492188 -0.09121094 13.45546875 -0.08789062 12.5390625 C-0.07532227 11.15847656 -0.07532227 11.15847656 -0.0625 9.75 C-0.05798828 8.81414062 -0.05347656 7.87828125 -0.04882812 6.9140625 C-0.03706918 4.60930959 -0.02063426 2.30468773 0 0 Z " fill="#5CB5D1" transform="translate(130,241)"/>
<path d="M0 0 C0.66 0.33 1.32 0.66 2 1 C0.6875 3 0.6875 3 -1 5 C-1.99 5 -2.98 5 -4 5 C-4.433125 6.4540625 -4.433125 6.4540625 -4.875 7.9375 C-6 11 -6 11 -8 12 C-8.7115625 13.670625 -8.7115625 13.670625 -9.4375 15.375 C-11.4950495 20.14851485 -11.4950495 20.14851485 -14 22 C-14.66 22 -15.32 22 -16 22 C-13.40752748 13.01893448 -7.53484613 5.46276344 0 0 Z " fill="#61C5D6" transform="translate(150,209)"/>
<path d="M0 0 C0.33 1.32 0.66 2.64 1 4 C1.66 4 2.32 4 3 4 C3.33 3.34 3.66 2.68 4 2 C4 2.99 4 3.98 4 5 C5.65 5 7.3 5 9 5 C9 6.32 9 7.64 9 9 C7.35 9 5.7 9 4 9 C4 14.61 4 20.22 4 26 C2.68 25.67 1.36 25.34 0 25 C0.99 24.67 1.98 24.34 3 24 C2.88573491 21.58239124 2.75900339 19.16652782 2.625 16.75 C2.57859375 15.72712891 2.57859375 15.72712891 2.53125 14.68359375 C2.31417312 10.95710729 1.85655667 8.23400194 0 5 C-0.125 2.25 -0.125 2.25 0 0 Z " fill="#2A639A" transform="translate(340,243)"/>
<path d="M0 0 C0.99 0.33 1.98 0.66 3 1 C2.01 2.485 2.01 2.485 1 4 C0.73344832 7.13198222 0.56457409 9.2259095 2.125 12 C3 14 3 14 2.125 17.25 C1.75375 18.1575 1.3825 19.065 1 20 C0.34 20 -0.32 20 -1 20 C-2.32 16.7 -3.64 13.4 -5 10 C-3.68 10.33 -2.36 10.66 -1 11 C-1.01160156 10.37351562 -1.02320313 9.74703125 -1.03515625 9.1015625 C-1.04417969 8.28429687 -1.05320313 7.46703125 -1.0625 6.625 C-1.07410156 5.81289062 -1.08570313 5.00078125 -1.09765625 4.1640625 C-1 2 -1 2 0 0 Z " fill="#70B1CD" transform="translate(176,249)"/>
<path d="M0 0 C0.66 0 1.32 0 2 0 C2.28875 1.134375 2.5775 2.26875 2.875 3.4375 C3.24625 4.613125 3.6175 5.78875 4 7 C4.66 7.33 5.32 7.66 6 8 C5.25 10.9375 5.25 10.9375 4 14 C1.09299153 15.406617 0.12277995 15.04092665 -3 14 C-2.67 13.34 -2.34 12.68 -2 12 C-0.02 12.495 -0.02 12.495 2 13 C1.67 11.02 1.34 9.04 1 7 C0.525625 7.495 0.05125 7.99 -0.4375 8.5 C-2 10 -2 10 -3 10 C-3.3636198 5.75776898 -2.5393228 3.41831915 0 0 Z M3 9 C4 12 4 12 4 12 Z " fill="#44AAC6" transform="translate(192,211)"/>
<path d="M0 0 C0.33 0.66 0.66 1.32 1 2 C1.99 2.33 2.98 2.66 4 3 C4.33 3.99 4.66 4.98 5 6 C5.66 6.66 6.32 7.32 7 8 C2.8803623 9.29243536 -0.66831683 10.26252625 -5 10 C-5 8.68 -5 7.36 -5 6 C-4.34 6 -3.68 6 -3 6 C-2.690625 5.195625 -2.38125 4.39125 -2.0625 3.5625 C-1 1 -1 1 0 0 Z " fill="#63A5CA" transform="translate(210,250)"/>
<path d="M0 0 C0.33 0 0.66 0 1 0 C0.67 4.95 0.34 9.9 0 15 C-1.32 13.68 -2.64 12.36 -4 11 C-4 10.34 -4 9.68 -4 9 C-4.66 9 -5.32 9 -6 9 C-6 8.01 -6 7.02 -6 6 C-6.66 6 -7.32 6 -8 6 C-8.33 6.66 -8.66 7.32 -9 8 C-9 5 -9 5 -7 2 C-6.34 2 -5.68 2 -5 2 C-3.61767557 3.62626404 -2.28062485 5.2925002 -1 7 C-0.67 4.69 -0.34 2.38 0 0 Z " fill="#32ADCF" transform="translate(154,231)"/>
<path d="M0 0 C1.8125 0.1875 1.8125 0.1875 4 1 C6.91160209 4.63950262 7.41835221 7.3981257 7 12 C6 13 6 13 3.05859375 13.09765625 C1.26615234 13.08025391 1.26615234 13.08025391 -0.5625 13.0625 C-2.35880859 13.04896484 -2.35880859 13.04896484 -4.19140625 13.03515625 C-5.11824219 13.02355469 -6.04507812 13.01195312 -7 13 C-7.33 13.66 -7.66 14.32 -8 15 C-8 14.01 -8 13.02 -8 12 C-3.71 12 0.58 12 5 12 C4.67 10.35 4.34 8.7 4 7 C2.02 7.66 0.04 8.32 -2 9 C-1.67 8.34 -1.34 7.68 -1 7 C-0.34 7 0.32 7 1 7 C1.66 5.35 2.32 3.7 3 2 C2.01 2 1.02 2 0 2 C0 1.34 0 0.68 0 0 Z " fill="#6D94BA" transform="translate(362,248)"/>
<path d="M0 0 C1.85625 0.0309375 1.85625 0.0309375 3.75 0.0625 C4.41 1.7125 5.07 3.3625 5.75 5.0625 C4.43 6.0525 3.11 7.0425 1.75 8.0625 C2.08 6.0825 2.41 4.1025 2.75 2.0625 C1.76 1.7325 0.77 1.4025 -0.25 1.0625 C-0.91 2.3825 -1.57 3.7025 -2.25 5.0625 C-3.24 4.7325 -4.23 4.4025 -5.25 4.0625 C-7.24961564 4.02329185 -9.25049364 4.01806653 -11.25 4.0625 C-11.58 5.0525 -11.91 6.0425 -12.25 7.0625 C-13.57 6.7325 -14.89 6.4025 -16.25 6.0625 C-15.00443908 5.24321114 -13.75333365 4.43234814 -12.5 3.625 C-11.45585937 2.94630859 -11.45585937 2.94630859 -10.390625 2.25390625 C-6.91941946 0.32193967 -3.93310659 -0.06555178 0 0 Z " fill="#39BDD5" transform="translate(168.25,201.9375)"/>
<path d="M0 0 C2.44959389 0.97983756 3.75652643 1.61556805 5.1875 3.875 C5.96336453 5.90418414 6.54509731 7.8771208 7 10 C6.34 10 5.68 10 5 10 C5 9.01 5 8.02 5 7 C4.443125 7.33 3.88625 7.66 3.3125 8 C0.69715478 9.1309601 -1.1806646 9.15662974 -4 9 C-4 7 -4 7 -2 5 C-2.99 4.34 -3.98 3.68 -5 3 C-3.02 3 -1.04 3 1 3 C0.67 2.01 0.34 1.02 0 0 Z " fill="#393B49" transform="translate(290,248)"/>
<path d="M0 0 C5 0 5 0 7 1 C6.67 2.32 6.34 3.64 6 5 C5.34 5 4.68 5 4 5 C4 7.64 4 10.28 4 13 C3.01 13.33 2.02 13.66 1 14 C0.67 9.38 0.34 4.76 0 0 Z " fill="#040618" transform="translate(245,248)"/>
<path d="M0 0 C1.98 0 3.96 0 6 0 C8.04040776 2.04040776 9 3.08325244 9 6 C8.01 6 7.02 6 6 6 C6.33 7.65 6.66 9.3 7 11 C6.01 11 5.02 11 4 11 C4 8.03 4 5.06 4 2 C3.01 1.67 2.02 1.34 1 1 C1 6.28 1 11.56 1 17 C0.67 17 0.34 17 0 17 C0 11.39 0 5.78 0 0 Z " fill="#6A94BC" transform="translate(344,252)"/>
<path d="M0 0 C0.66 1.32 1.32 2.64 2 4 C-1.63 4.66 -5.26 5.32 -9 6 C-9.33 5.34 -9.66 4.68 -10 4 C-9.67 3.01 -9.34 2.02 -9 1 C-5.8035914 -0.06546953 -3.34252724 -0.07427838 0 0 Z " fill="#191B2C" transform="translate(289,247)"/>
<path d="M0 0 C1.32 0 2.64 0 4 0 C4.66 1.65 5.32 3.3 6 5 C5.01 5.99 4.02 6.98 3 8 C0.525 7.01 0.525 7.01 -2 6 C-1.125 1.125 -1.125 1.125 0 0 Z " fill="#648CB4" transform="translate(330,238)"/>
<path d="M0 0 C1.22589844 0.01353516 1.22589844 0.01353516 2.4765625 0.02734375 C3.41628906 0.04474609 3.41628906 0.04474609 4.375 0.0625 C4.045 1.0525 3.715 2.0425 3.375 3.0625 C1.395 3.0625 -0.585 3.0625 -2.625 3.0625 C-2.625 3.7225 -2.625 4.3825 -2.625 5.0625 C-3.615 5.0625 -4.605 5.0625 -5.625 5.0625 C-5.955 5.7225 -6.285 6.3825 -6.625 7.0625 C-7.615 6.7325 -8.605 6.4025 -9.625 6.0625 C-6.82571525 1.10013159 -5.68650628 -0.0812358 0 0 Z " fill="#3174B6" transform="translate(209.625,287.9375)"/>
<path d="M0 0 C0.66 0 1.32 0 2 0 C2.38218767 1.65614657 2.71395102 3.32457024 3 5 C2.67 5.33 2.34 5.66 2 6 C1.84379445 7.41327947 1.74943827 8.8335459 1.68359375 10.25390625 C1.64169922 11.10791016 1.59980469 11.96191406 1.55664062 12.84179688 C1.49766602 14.18854492 1.49766602 14.18854492 1.4375 15.5625 C1.39431641 16.46419922 1.35113281 17.36589844 1.30664062 18.29492188 C1.20021858 20.52978485 1.09820012 22.76476308 1 25 C0.67 25 0.34 25 0 25 C-0.19789024 21.77138267 -0.38146345 18.54210273 -0.5625 15.3125 C-0.61857422 14.40048828 -0.67464844 13.48847656 -0.73242188 12.54882812 C-0.78076172 11.66259766 -0.82910156 10.77636719 -0.87890625 9.86328125 C-0.9260376 9.05157471 -0.97316895 8.23986816 -1.02172852 7.40356445 C-0.99838228 4.8210515 -0.5804792 2.51150091 0 0 Z " fill="#5DAED0" transform="translate(204,224)"/>
<path d="M0 0 C0.33 0.66 0.66 1.32 1 2 C2.98 2 4.96 2 7 2 C3.87378374 5.39417765 1.43458973 7.6062718 -3 9 C-2.44271087 5.65626525 -1.64826111 2.96687001 0 0 Z " fill="#64A3C0" transform="translate(193,257)"/>
<path d="M0 0 C0.33 1.65 0.66 3.3 1 5 C-2.96 5 -6.92 5 -11 5 C-11 4.01 -11 3.02 -11 2 C-9.5422647 1.664061 -8.08378894 1.33133376 -6.625 1 C-5.40683594 0.7215625 -5.40683594 0.7215625 -4.1640625 0.4375 C-2 0 -2 0 0 0 Z " fill="#060818" transform="translate(295,255)"/>
<path d="M0 0 C0.66 2.31 1.32 4.62 2 7 C-0.64 6.34 -3.28 5.68 -6 5 C-6 6.65 -6 8.3 -6 10 C-6.66 9.67 -7.32 9.34 -8 9 C-8 6.69 -8 4.38 -8 2 C-2.25 0 -2.25 0 0 0 Z M-5 2 C-5.33 2.66 -5.66 3.32 -6 4 C-5.01 3.67 -4.02 3.34 -3 3 C-3.66 2.67 -4.32 2.34 -5 2 Z " fill="#4EB7D1" transform="translate(174,215)"/>
<path d="M0 0 C0.99 0.495 0.99 0.495 2 1 C1.01 1.495 1.01 1.495 0 2 C0 1.34 0 0.68 0 0 Z M-3 1 C-2.01 1.66 -1.02 2.32 0 3 C-2.33846154 8.66153846 -2.33846154 8.66153846 -5.6875 10.375 C-6.450625 10.58125 -7.21375 10.7875 -8 11 C-7.67 8.69 -7.34 6.38 -7 4 C-6.01 4 -5.02 4 -4 4 C-3.67 3.01 -3.34 2.02 -3 1 Z " fill="#357FB5" transform="translate(201,266)"/>
<path d="M0 0 C1.65 0 3.3 0 5 0 C5.33 0.99 5.66 1.98 6 3 C5.67 3.66 5.34 4.32 5 5 C4.92883618 7.37402501 4.91590915 9.75000677 4.9375 12.125 C4.94652344 13.40632813 4.95554687 14.68765625 4.96484375 16.0078125 C4.97644531 16.99523437 4.98804688 17.98265625 5 19 C4.34 19.33 3.68 19.66 3 20 C3 14.72 3 9.44 3 4 C2.01 4 1.02 4 0 4 C0 2.68 0 1.36 0 0 Z " fill="#4277AA" transform="translate(336,249)"/>
<path d="M0 0 C0.94875 0.04125 1.8975 0.0825 2.875 0.125 C1.885 1.61 1.885 1.61 0.875 3.125 C0.51148496 5.15042148 0.51148496 5.15042148 0.4609375 7.35546875 C0.42226563 8.15791016 0.38359375 8.96035156 0.34375 9.78710938 C0.3128125 10.62048828 0.281875 11.45386719 0.25 12.3125 C0.21132813 13.15748047 0.17265625 14.00246094 0.1328125 14.87304688 C0.03863721 16.95667524 -0.04426675 19.04080753 -0.125 21.125 C-0.455 21.125 -0.785 21.125 -1.125 21.125 C-1.16238281 20.00480469 -1.19976562 18.88460938 -1.23828125 17.73046875 C-1.30394257 16.2577791 -1.37038986 14.78512434 -1.4375 13.3125 C-1.46005859 12.57451172 -1.48261719 11.83652344 -1.50585938 11.07617188 C-1.68057955 6.79392961 -1.68057955 6.79392961 -3.66796875 3.11328125 C-4.14878906 2.78714844 -4.62960937 2.46101562 -5.125 2.125 C-3.125 0.125 -3.125 0.125 0 0 Z " fill="#5C5E6C" transform="translate(269.125,247.875)"/>
<path d="M0 0 C1.32 0.66 2.64 1.32 4 2 C4 2.99 4 3.98 4 5 C0.66602694 7.22264871 -0.59514891 7.29675463 -4.5 7.3125 C-5.4590625 7.32925781 -6.418125 7.34601563 -7.40625 7.36328125 C-10.34780511 6.95128633 -11.20423739 6.29930415 -13 4 C-11.68 4 -10.36 4 -9 4 C-9 4.66 -9 5.32 -9 6 C-6.36 6 -3.72 6 -1 6 C-1 4.68 -1 3.36 -1 2 C-0.67 1.34 -0.34 0.68 0 0 Z " fill="#333946" transform="translate(291,262)"/>
<path d="M0 0 C0 3.63 0 7.26 0 11 C-0.99 11 -1.98 11 -3 11 C-4.55829701 7.96997804 -5.16384649 6.60077048 -4.25 3.25 C-2.44444444 0 -2.44444444 0 0 0 Z " fill="#02041A" transform="translate(317,257)"/>
<path d="M0 0 C2.64 0.66 5.28 1.32 8 2 C8 2.66 8 3.32 8 4 C8.56589844 4.10957031 9.13179687 4.21914063 9.71484375 4.33203125 C10.44832031 4.49058594 11.18179688 4.64914062 11.9375 4.8125 C12.66839844 4.96332031 13.39929688 5.11414063 14.15234375 5.26953125 C14.76207031 5.51058594 15.37179688 5.75164062 16 6 C16.33 6.99 16.66 7.98 17 9 C10.80016113 8.67369269 5.94969519 5.51419037 1 2 C0.67 1.34 0.34 0.68 0 0 Z " fill="#65A3C3" transform="translate(148,290)"/>
<path d="M0 0 C1.65 0 3.3 0 5 0 C5 2.97 5 5.94 5 9 C3 9 3 9 0.8125 7.3125 C-1 5 -1 5 -0.75 2.25 C-0.5025 1.5075 -0.255 0.765 0 0 Z " fill="#2D73B0" transform="translate(217,272)"/>
<path d="M0 0 C0.66 0 1.32 0 2 0 C0.66666667 6.66666667 -0.66666667 13.33333333 -2 20 C-2.33 20 -2.66 20 -3 20 C-3.41640288 12.7515055 -2.44166784 6.83085645 0 0 Z " fill="#6498C0" transform="translate(192,272)"/>
<path d="M0 0 C5.445 1.485 5.445 1.485 11 3 C10.01 3.66 9.02 4.32 8 5 C7.01 6.485 7.01 6.485 6 8 C3.5625 6.8125 3.5625 6.8125 1 5 C0.67 3.35 0.34 1.7 0 0 Z " fill="#3BA3CB" transform="translate(140,256)"/>
<path d="M0 0 C2.475 0.495 2.475 0.495 5 1 C4.979375 1.804375 4.95875 2.60875 4.9375 3.4375 C4.70366379 5.93354885 4.70366379 5.93354885 6 7 C6.04080783 8.99958364 6.04254356 11.00045254 6 13 C5.34 13 4.68 13 4 13 C4 11.02 4 9.04 4 7 C3.34 7 2.68 7 2 7 C0.5393715 4.35261084 0 3.10551666 0 0 Z " fill="#31A1D1" transform="translate(194,211)"/>
<path d="M0 0 C1.65 0 3.3 0 5 0 C2.0098979 3.33511388 -0.89498574 5.21521119 -5 7 C-5.66 7 -6.32 7 -7 7 C-7 6.01 -7 5.02 -7 4 C-6.01 4 -5.02 4 -4 4 C-3.67 3.01 -3.34 2.02 -3 1 C-2.01 1.33 -1.02 1.66 0 2 C0 1.34 0 0.68 0 0 Z " fill="#5F8EBC" transform="translate(207,291)"/>
<path d="M0 0 C1.4540625 0.0309375 1.4540625 0.0309375 2.9375 0.0625 C0.9575 1.0525 0.9575 1.0525 -1.0625 2.0625 C-0.0725 2.0625 0.9175 2.0625 1.9375 2.0625 C2.5975 3.7125 3.2575 5.3625 3.9375 7.0625 C0.6375 6.4025 -2.6625 5.7425 -6.0625 5.0625 C-3.56765464 0.07280928 -3.56765464 0.07280928 0 0 Z " fill="#1F2434" transform="translate(307.0625,246.9375)"/>
<path d="M0 0 C1.32 0 2.64 0 4 0 C3.30058404 3.14737182 2.23921302 6.02588876 1 9 C0.71125 8.38125 0.4225 7.7625 0.125 7.125 C-0.93720042 4.86674235 -0.93720042 4.86674235 -3 3 C-5.57061311 2.35232207 -5.57061311 2.35232207 -8 2 C-8 1.67 -8 1.34 -8 1 C-6.865625 1.020625 -5.73125 1.04125 -4.5625 1.0625 C-1.18424326 1.41577477 -1.18424326 1.41577477 0 0 Z " fill="#48A1C6" transform="translate(186,248)"/>
<path d="M0 0 C0.66 0.33 1.32 0.66 2 1 C1.40572612 2.60785777 0.79916412 4.21117709 0.1875 5.8125 C-0.14894531 6.70582031 -0.48539063 7.59914063 -0.83203125 8.51953125 C-1.96197319 10.91924072 -3.01062293 12.28423353 -5 14 C-5.3669579 7.51707705 -5.3669579 7.51707705 -3.625 5.0625 C-2 4 -2 4 0 4 C0 2.68 0 1.36 0 0 Z " fill="#5188B9" transform="translate(227,266)"/>
<path d="M0 0 C1 2 1 2 1 5 C1.33 5 1.66 5 2 5 C2.33 7.97 2.66 10.94 3 14 C2.01 13.67 1.02 13.34 0 13 C-1.66370416 8.67436917 -2.44414387 5.46371742 -1 1 C-0.67 0.67 -0.34 0.34 0 0 Z " fill="#78C8E1" transform="translate(165,238)"/>
<path d="M0 0 C1.32 0 2.64 0 4 0 C4.33 1.65 4.66 3.3 5 5 C2.36 5.99 -0.28 6.98 -3 8 C-1.125 2.25 -1.125 2.25 0 0 Z " fill="#5EB6D5" transform="translate(174,228)"/>
<path d="M0 0 C2.3431213 0.25561323 4.67843403 0.59270772 7 1 C7.33 1.66 7.66 2.32 8 3 C7.0625 5.125 7.0625 5.125 6 7 C5.34 6.67 4.68 6.34 4 6 C4 5.34 4 4.68 4 4 C2.68 3.67 1.36 3.34 0 3 C0 2.01 0 1.02 0 0 Z " fill="#39A6C3" transform="translate(167,220)"/>
<path d="M0 0 C1.98 0 3.96 0 6 0 C6 0.99 6 1.98 6 3 C6.99 3 7.98 3 9 3 C9 3.66 9 4.32 9 5 C6.36 4.67 3.72 4.34 1 4 C0.67 2.68 0.34 1.36 0 0 Z " fill="#366EA6" transform="translate(356,247)"/>
<path d="M0 0 C0.99 0.33 1.98 0.66 3 1 C4.1875 3.5625 4.1875 3.5625 5 6 C2.5 8.5 2.5 8.5 0 11 C0 7.37 0 3.74 0 0 Z " fill="#33A3D1" transform="translate(159,241)"/>
<path d="M0 0 C3 1 3 1 4.125 3.1875 C5.0512562 6.16475206 5.72957613 8.89012554 6 12 C5.01 13.485 5.01 13.485 4 15 C3.71125 13.824375 3.4225 12.64875 3.125 11.4375 C2.16686279 7.5981073 1.10794489 3.7986682 0 0 Z " fill="#76C6DE" transform="translate(193,231)"/>
<path d="M0 0 C0.33 0 0.66 0 1 0 C1.04125 0.9075 1.0825 1.815 1.125 2.75 C1.72464389 6.27994174 1.72464389 6.27994174 5.0625 8.375 C6.031875 8.91125 7.00125 9.4475 8 10 C5 12 5 12 3 12 C2.29773859 10.75823305 1.61370891 9.50614401 0.9375 8.25 C0.36322266 7.20585937 0.36322266 7.20585937 -0.22265625 6.140625 C-1.1312406 3.63859372 -0.88336837 2.4667645 0 0 Z " fill="#39AAC8" transform="translate(165,218)"/>
<path d="M0 0 C3.93673644 1.31224548 6.22719294 2.91910327 9 6 C6.69 6.33 4.38 6.66 2 7 C2 6.01 2 5.02 2 4 C1.05021103 1.84971696 1.05021103 1.84971696 0 0 Z " fill="#55AACA" transform="translate(155,261)"/>
<path d="M0 0 C0.99 0.33 1.98 0.66 3 1 C3 1.66 3 2.32 3 3 C2.34 3 1.68 3 1 3 C1.33 4.65 1.66 6.3 2 8 C0.68 8.33 -0.64 8.66 -2 9 C-2.33 7.35 -2.66 5.7 -3 4 C-2.34 3.67 -1.68 3.34 -1 3 C-0.67 2.01 -0.34 1.02 0 0 Z " fill="#2F90C1" transform="translate(190,248)"/>
<path d="M0 0 C2.75 0.25 2.75 0.25 5 1 C4.67 2.32 4.34 3.64 4 5 C1.36 4.67 -1.28 4.34 -4 4 C-2.3125 1.9375 -2.3125 1.9375 0 0 Z " fill="#030518" transform="translate(306,264)"/>
<path d="M0 0 C3.45925163 1.2491742 6.14693203 2.67527795 9 5 C8.67 5.66 8.34 6.32 8 7 C5.6875 6.8125 5.6875 6.8125 3 6 C0 1.86206897 0 1.86206897 0 0 Z " fill="#66B7D1" transform="translate(206,207)"/>
<path d="M0 0 C-0.99 1.485 -0.99 1.485 -2 3 C-3.9453125 3.29296875 -3.9453125 3.29296875 -6.125 3.1875 C-7.40375 3.125625 -8.6825 3.06375 -10 3 C-9.67 2.01 -9.34 1.02 -9 0 C-2.25 -1.125 -2.25 -1.125 0 0 Z " fill="#020516" transform="translate(292,265)"/>
<path d="M0 0 C0.66 0 1.32 0 2 0 C3.4606285 2.64738916 4 3.89448334 4 7 C0.62496331 5.8141763 -1.64722731 4.72426311 -4 2 C-2.68 2.33 -1.36 2.66 0 3 C0 2.01 0 1.02 0 0 Z " fill="#68AAC5" transform="translate(168,259)"/>
<path d="M0 0 C0 1.98 0 3.96 0 6 C-0.99 5.67 -1.98 5.34 -3 5 C-3.33 5.66 -3.66 6.32 -4 7 C-4.66 5.02 -5.32 3.04 -6 1 C-3.92446352 0.4465236 -2.15634036 0 0 0 Z " fill="#4DA7CD" transform="translate(174,251)"/>
<path d="M0 0 C2 3.75 2 3.75 2 6 C2.66 6.66 3.32 7.32 4 8 C4.125 10.625 4.125 10.625 4 13 C1.65409087 10.86735534 0.0358888 9.02134234 -1 6 C-0.625 2.75 -0.625 2.75 0 0 Z " fill="#5CAECF" transform="translate(134,265)"/>
<path d="M0 0 C0.66 0 1.32 0 2 0 C2 0.99 2 1.98 2 3 C2.66 3 3.32 3 4 3 C4 3.99 4 4.98 4 6 C2.02 6 0.04 6 -2 6 C-2.33 5.01 -2.66 4.02 -3 3 C-2.01 3 -1.02 3 0 3 C0 2.01 0 1.02 0 0 Z " fill="#3871A8" transform="translate(352,260)"/>
<path d="M0 0 C0.99 0.33 1.98 0.66 3 1 C2.34 2.98 1.68 4.96 1 7 C0.01 7 -0.98 7 -2 7 C-2 5.02 -2 3.04 -2 1 C-1.34 0.67 -0.68 0.34 0 0 Z " fill="#386EA6" transform="translate(352,249)"/>
<path d="M0 0 C0.99 0 1.98 0 3 0 C5 3 5 3 5 6 C2.69 6 0.38 6 -2 6 C-1.34 5.67 -0.68 5.34 0 5 C0 3.35 0 1.7 0 0 Z " fill="#3988C2" transform="translate(218,251)"/>
<path d="M0 0 C0.99 0.33 1.98 0.66 3 1 C2.67 3.31 2.34 5.62 2 8 C1.67 7.01 1.34 6.02 1 5 C0.01 5 -0.98 5 -2 5 C-1.125 1.125 -1.125 1.125 0 0 Z " fill="#489AC7" transform="translate(201,248)"/>
<path d="M0 0 C-5.625 3 -5.625 3 -9 3 C-9.33 3.99 -9.66 4.98 -10 6 C-11.32 5.67 -12.64 5.34 -14 5 C-12.75443908 4.18071114 -11.50333365 3.36984814 -10.25 2.5625 C-9.20585937 1.88380859 -9.20585937 1.88380859 -8.140625 1.19140625 C-5.17385561 -0.45980664 -3.14566509 -1.57283254 0 0 Z " fill="#8CD7E3" transform="translate(166,203)"/>
<path d="M0 0 C0.99 0.33 1.98 0.66 3 1 C3 1.66 3 2.32 3 3 C3.66 3 4.32 3 5 3 C5.66 4.98 6.32 6.96 7 9 C6.34 9 5.68 9 5 9 C3.7109375 7.5390625 3.7109375 7.5390625 2.375 5.625 C1.92898437 4.99851562 1.48296875 4.37203125 1.0234375 3.7265625 C0 2 0 2 0 0 Z " fill="#6EAFCA" transform="translate(138,278)"/>
<path d="M0 0 C1.32 0 2.64 0 4 0 C4 1.32 4 2.64 4 4 C3.34 4 2.68 4 2 4 C2.33 4.99 2.66 5.98 3 7 C2.01 7 1.02 7 0 7 C0 4.69 0 2.38 0 0 Z " fill="#030419" transform="translate(298,256)"/>
<path d="M0 0 C0.66 0 1.32 0 2 0 C3 3 4 6 5 9 C4.01 9.495 4.01 9.495 3 10 C3 9.34 3 8.68 3 8 C1.68 7.67 0.36 7.34 -1 7 C-0.67 4.69 -0.34 2.38 0 0 Z " fill="#78C3DB" transform="translate(148,244)"/>
<path d="M0 0 C0.66 0 1.32 0 2 0 C2 2.97 2 5.94 2 9 C1.34 8.67 0.68 8.34 0 8 C0 7.01 0 6.02 0 5 C-0.66 4.67 -1.32 4.34 -2 4 C-1.34 2.68 -0.68 1.36 0 0 Z " fill="#3183BB" transform="translate(227,240)"/>
<path d="M0 0 C2 1 4 2 6 3 C5.34 3 4.68 3 4 3 C4.33 3.99 4.66 4.98 5 6 C3.35 6 1.7 6 0 6 C0 4.02 0 2.04 0 0 Z " fill="#3575B2" transform="translate(191,294)"/>
<path d="M0 0 C-0.66 1.32 -1.32 2.64 -2 4 C-3.98 4 -5.96 4 -8 4 C-7.67 3.01 -7.34 2.02 -7 1 C-4.53721199 -0.231394 -2.7204945 -0.07159196 0 0 Z " fill="#4688B3" transform="translate(210,261)"/>
<path d="M0 0 C2.31 0 4.62 0 7 0 C7 0.99 7 1.98 7 3 C5.68 3 4.36 3 3 3 C2.67 3.66 2.34 4.32 2 5 C1.34 3.35 0.68 1.7 0 0 Z " fill="#2A63A0" transform="translate(342,239)"/>
<path d="M0 0 C-0.33 0.66 -0.66 1.32 -1 2 C-4.63 1.67 -8.26 1.34 -12 1 C-12 0.67 -12 0.34 -12 0 C-7.66726186 -0.92844389 -4.33273814 -0.92844389 0 0 Z " fill="#67C9DC" transform="translate(178,201)"/>
<path d="M0 0 C0.99 0 1.98 0 3 0 C2.67 2.31 2.34 4.62 2 7 C1.34 7 0.68 7 0 7 C-1.125 2.25 -1.125 2.25 0 0 Z " fill="#54ABD5" transform="translate(213,235)"/>
<path d="M0 0 C0.99 0 1.98 0 3 0 C3.66 1.98 4.32 3.96 5 6 C4.01 6.33 3.02 6.66 2 7 C0.5393715 4.35261084 0 3.10551666 0 0 Z " fill="#4AB1D8" transform="translate(189,228)"/>
<path d="M0 0 C2 1.8125 2 1.8125 4 4 C4 4.99 4 5.98 4 7 C2.68 7.33 1.36 7.66 0 8 C0 7.34 0 6.68 0 6 C-0.66 5.67 -1.32 5.34 -2 5 C-1.01 4.67 -0.02 4.34 1 4 C0.67 2.68 0.34 1.36 0 0 Z " fill="#83C3D0" transform="translate(153,253)"/>
<path d="M0 0 C2 2 2 2 2.125 4.625 C2.08375 5.40875 2.0425 6.1925 2 7 C-1.01031744 7.93423645 -1.86650268 8.04449911 -5 7 C-4.67 6.34 -4.34 5.68 -4 5 C-2.02 5.495 -2.02 5.495 0 6 C-0.2784375 4.7934375 -0.2784375 4.7934375 -0.5625 3.5625 C-0.706875 2.716875 -0.85125 1.87125 -1 1 C-0.67 0.67 -0.34 0.34 0 0 Z " fill="#7ACEE4" transform="translate(194,218)"/>
<path d="M0 0 C2.64 0.33 5.28 0.66 8 1 C8.33 1.99 8.66 2.98 9 4 C3.46153846 3.38461538 3.46153846 3.38461538 1.125 1.4375 C0.75375 0.963125 0.3825 0.48875 0 0 Z " fill="#70A6CB" transform="translate(156,295)"/>
<path d="M0 0 C2.97 0.495 2.97 0.495 6 1 C6 1.66 6 2.32 6 3 C3.03 3 0.06 3 -3 3 C-2.01 2.67 -1.02 2.34 0 2 C0 1.34 0 0.68 0 0 Z " fill="#2D639F" transform="translate(357,265)"/>
<path d="M0 0 C1.65 0 3.3 0 5 0 C5.33 1.32 5.66 2.64 6 4 C4.02 3.34 2.04 2.68 0 2 C0 1.34 0 0.68 0 0 Z " fill="#449DC5" transform="translate(162,258)"/>
<path d="M0 0 C2.475 0.495 2.475 0.495 5 1 C5 1.99 5 2.98 5 4 C3.35 4 1.7 4 0 4 C0 2.68 0 1.36 0 0 Z " fill="#2FA7D5" transform="translate(146,251)"/>
<path d="M0 0 C0.66 0.33 1.32 0.66 2 1 C2 2.32 2 3.64 2 5 C0.68 5 -0.64 5 -2 5 C-2.33 4.01 -2.66 3.02 -3 2 C-2.01 1.34 -1.02 0.68 0 0 Z " fill="#40A3C0" transform="translate(192,219)"/>
<path d="M0 0 C2.0625 0.4375 2.0625 0.4375 4 1 C3.1875 2.9375 3.1875 2.9375 2 5 C1.01 5.33 0.02 5.66 -1 6 C-1.042721 4.33388095 -1.04063832 2.66617115 -1 1 C-0.67 0.67 -0.34 0.34 0 0 Z " fill="#60BADA" transform="translate(190,215)"/>
<path d="M0 0 C0.66 0.33 1.32 0.66 2 1 C0.6875 3 0.6875 3 -1 5 C-1.99 5 -2.98 5 -4 5 C-4 5.66 -4 6.32 -4 7 C-4.99 6.67 -5.98 6.34 -7 6 C-4.69 4.02 -2.38 2.04 0 0 Z " fill="#8BD3DD" transform="translate(150,209)"/>
<path d="M0 0 C1.98 0.99 1.98 0.99 4 2 C3.67 3.32 3.34 4.64 3 6 C2.34 6 1.68 6 1 6 C0.67 6.66 0.34 7.32 0 8 C0 5.36 0 2.72 0 0 Z " fill="#5B8CBA" transform="translate(216,280)"/>
<path d="M0 0 C1.65 0 3.3 0 5 0 C3.71937515 1.7074998 2.38232443 3.37373596 1 5 C0.34 5 -0.32 5 -1 5 C-0.67 3.35 -0.34 1.7 0 0 Z " fill="#2A75BE" transform="translate(217,272)"/>
<path d="M0 0 C0.99 0.495 0.99 0.495 2 1 C1.01 1.495 1.01 1.495 0 2 C0 1.34 0 0.68 0 0 Z M-3 1 C-1.515 1.99 -1.515 1.99 0 3 C-0.33 3.99 -0.66 4.98 -1 6 C-1.99 6 -2.98 6 -4 6 C-3.67 4.35 -3.34 2.7 -3 1 Z " fill="#277FBD" transform="translate(201,266)"/>
<path d="M0 0 C0.33 0.66 0.66 1.32 1 2 C1.66 2 2.32 2 3 2 C3 2.66 3 3.32 3 4 C3.66 4.33 4.32 4.66 5 5 C3.02 5 1.04 5 -1 5 C-0.67 3.35 -0.34 1.7 0 0 Z " fill="#2F88B7" transform="translate(195,254)"/>
<path d="M0 0 C2.79872437 2.52788007 4.45773019 4.20411134 5 8 C3.0625 7.375 3.0625 7.375 1 6 C0.25 2.875 0.25 2.875 0 0 Z " fill="#6DB0C6" transform="translate(220,219)"/>
<path d="M0 0 C1.32 0 2.64 0 4 0 C3 2 3 2 1 3 C1 4.98 1 6.96 1 9 C0.34 8.67 -0.32 8.34 -1 8 C-1.04241723 5.66705225 -1.04092937 3.33297433 -1 1 C-0.67 0.67 -0.34 0.34 0 0 Z " fill="#91D9E9" transform="translate(167,216)"/>
<path d="M0 0 C2.475 0.495 2.475 0.495 5 1 C4.67 2.32 4.34 3.64 4 5 C3.01 5 2.02 5 1 5 C0.67 3.35 0.34 1.7 0 0 Z " fill="#2CA9D7" transform="translate(194,211)"/>
</svg>
